<?xml version="1.0" standalone="no"?>
<!DOCTYPE svg PUBLIC "-//W3C//DTD SVG 20010904//EN"
 "http://www.w3.org/TR/2001/REC-SVG-20010904/DTD/svg10.dtd">
<svg version="1.0" xmlns="http://www.w3.org/2000/svg"
 width="230.000000pt" height="230.000000pt" viewBox="0 0 230.000000 230.000000"
 preserveAspectRatio="xMidYMid meet">
<metadata>
Created by potrace 1.11, written by Peter Selinger 2001-2013
</metadata>
<g transform="translate(0.000000,230.000000) scale(0.100000,-0.100000)"
fill="#000000" stroke="none">
<path d="M453 2222 c-6 -4 -48 -6 -94 -5 l-82 1 226 -226 227 -227 327 0 c333
-1 378 -5 423 -34 83 -54 119 -169 81 -264 -13 -34 -71 -92 -100 -102 -12 -3
-21 -10 -21 -14 0 -8 -83 -12 -375 -16 -116 -2 -223 -6 -238 -9 -54 -13 -137
-48 -137 -58 0 -6 -3 -8 -7 -5 -21 21 -215 -173 -205 -206 1 -4 -2 -7 -6 -7
-8 0 -36 -69 -48 -120 -4 -14 -8 -88 -10 -165 -3 -77 -6 -160 -7 -185 l-4 -45
226 -227 c124 -126 228 -228 231 -228 3 0 5 141 4 313 -1 171 2 330 6 351 11
52 37 86 87 114 38 21 53 22 229 23 104 0 194 0 199 -1 6 -1 15 -1 20 0 6 1
37 3 70 5 54 3 76 6 140 19 33 7 130 39 135 45 3 3 22 15 44 26 21 11 41 25
43 32 3 7 9 13 15 13 25 0 111 120 142 200 44 110 50 148 50 315 0 127 -2 146
-26 207 -37 97 -84 171 -154 242 -110 112 -251 188 -415 222 -25 5 -232 17
-259 15 -45 -3 -122 -1 -129 4 -6 3 -12 1 -16 -5 -4 -6 -11 -7 -17 -4 -5 4
-47 6 -92 5 -132 -2 -189 -2 -218 2 -16 2 -28 1 -28 -2 0 -7 -198 -4 -216 3
-6 2 -16 1 -21 -2z"/>
</g>
</svg>
